<svg enable-background="new 0 0 128 128" viewBox="0 0 128 128" xmlns="http://www.w3.org/2000/svg" xmlns:xlink="http://www.w3.org/1999/xlink"><linearGradient id="a" gradientUnits="userSpaceOnUse" x1="42.015" x2="86.371" y1="26.377" y2="103.2"><stop offset="0" stop-color="#e3f2fd"/><stop offset="1" stop-color="#90caf9"/></linearGradient><path d="m113.14 84.4-11.26-6.45 8.52-2.16c3.04-.77 4.82-3.87 3.95-6.89-.86-2.98-4.02-4.79-7.02-4.03l-19.59 4.97-9.79-5.61 10.46-5.98 18.84 4.8c3 .77 6.16-1.04 7.02-4.02.87-3.02-.9-6.12-3.94-6.89l-7.78-1.98 10.79-6.17c3.36-1.92 4.52-6.2 2.6-9.55-1.92-3.36-6.2-4.52-9.55-2.6l-11.26 6.44 2.45-8.45c.87-3.02-.9-6.12-3.94-6.89-3-.77-6.16 1.04-7.02 4.02l-5.62 19.41-10 5.71v-12.36l13.53-13.97c2.15-2.23 2.15-5.87 0-8.09-2.18-2.26-5.76-2.26-7.94 0l-5.59 5.77v-12.43c0-3.87-3.13-7-7-7s-7 3.13-7 7v12.97l-6.12-6.32c-2.18-2.26-5.76-2.26-7.94 0-2.16 2.23-2.16 5.87 0 8.09l14.06 14.53v11.94l-10.51-6.03-5.56-19.29c-.86-2.98-4.02-4.79-7.02-4.03-3.04.77-4.82 3.87-3.95 6.89l2.4 8.32-11.17-6.4c-3.35-1.92-7.63-.76-9.55 2.59s-.76 7.63 2.59 9.55l10.77 6.18-7.78 1.98c-3.04.77-4.82 3.87-3.95 6.89.86 2.98 4.02 4.79 7.02 4.03l18.85-4.79 10.66 6.11-10.09 5.77-19.45-4.96c-3-.77-6.16 1.04-7.02 4.02-.87 3.02.9 6.12 3.94 6.89l8.39 2.14-11.18 6.39c-3.36 1.92-4.52 6.2-2.6 9.55 1.92 3.36 6.2 4.52 9.55 2.6l10.79-6.17-2.23 7.71c-.87 3.02.9 6.12 3.94 6.89 3 .77 6.16-1.04 7.02-4.02l5.41-18.68 10.73-6.12v11.61l-13.96 14.42c-2.16 2.23-2.16 5.87 0 8.09 2.18 2.26 5.76 2.26 7.94 0l6.02-6.22v12.88c0 3.87 3.13 7 7 7s7-3.13 7-7v-12.43l5.59 5.77c2.18 2.26 5.76 2.26 7.94 0 2.15-2.23 2.15-5.87 0-8.09l-13.53-13.97v-11.91l10.26 5.88 5.39 18.68c.86 2.98 4.02 4.79 7.02 4.03 3.04-.77 4.82-3.87 3.95-6.89l-2.23-7.72 10.78 6.18c3.35 1.92 7.63.76 9.55-2.59 1.93-3.34.77-7.62-2.58-9.54z" fill="url(#a)"/><path d="m64 6c2.76 0 5 2.24 5 5v12.43c0 .81.49 1.55 1.25 1.85.24.1.5.15.75.15.53 0 1.05-.21 1.44-.61l5.59-5.77c.68-.7 1.58-1.08 2.53-1.08s1.86.38 2.53 1.08c1.39 1.44 1.39 3.87 0 5.31l-13.53 13.97c-.36.37-.56.87-.56 1.39v12.36c0 .71.38 1.37 1 1.73.31.18.66.27 1 .27s.69-.09.99-.26l9.99-5.72c.45-.26.78-.68.93-1.18l5.62-19.41c.46-1.59 2.02-2.75 3.7-2.75.31 0 .61.04.91.11.94.24 1.72.83 2.2 1.66s.59 1.8.32 2.74l-2.45 8.45c-.23.78.04 1.62.68 2.13.36.28.8.43 1.24.43.34 0 .68-.09.99-.26l11.26-6.44c.76-.43 1.61-.66 2.48-.66 1.79 0 3.46.97 4.35 2.52 1.37 2.39.54 5.45-1.86 6.82l-10.79 6.17c-.71.4-1.1 1.2-.99 2.01s.7 1.47 1.49 1.67l7.78 1.98c.94.24 1.72.83 2.2 1.66s.59 1.8.32 2.74c-.46 1.59-2.02 2.75-3.7 2.75-.31 0-.61-.04-.91-.11l-18.84-4.8c-.16-.04-.33-.06-.49-.06-.35 0-.69.09-.99.26l-10.46 5.98c-.62.36-1.01 1.02-1.01 1.74s.38 1.38 1.01 1.74l9.79 5.61c.31.18.65.26.99.26.16 0 .33-.02.49-.06l19.59-4.97c.29-.07.6-.11.9-.11 1.69 0 3.24 1.16 3.7 2.75.27.93.16 1.91-.32 2.74s-1.26 1.42-2.2 1.66l-8.52 2.13c-.79.2-1.38.86-1.49 1.67s.28 1.6.99 2.01l11.26 6.45c1.16.66 1.99 1.74 2.34 3.03s.18 2.64-.49 3.8c-.89 1.55-2.55 2.51-4.34 2.51-.87 0-1.72-.23-2.48-.66l-10.78-6.18c-.31-.18-.65-.26-.99-.26-.44 0-.88.14-1.24.43-.64.5-.91 1.34-.69 2.13l2.23 7.72c.27.93.16 1.91-.32 2.74s-1.26 1.42-2.2 1.66c-.29.07-.6.11-.9.11-1.69 0-3.24-1.16-3.7-2.75l-5.41-18.71c-.14-.5-.48-.92-.93-1.18l-10.26-5.88c-.31-.18-.65-.26-.99-.26-.35 0-.69.09-1 .27-.62.36-1 1.02-1 1.73v11.91c0 .52.2 1.02.56 1.39l13.53 13.97c1.39 1.44 1.39 3.87 0 5.31-.68.7-1.58 1.08-2.53 1.08s-1.86-.38-2.53-1.08l-5.59-5.77c-.38-.4-.91-.61-1.44-.61-.25 0-.51.05-.75.15-.76.31-1.25 1.04-1.25 1.85v12.42c0 2.76-2.24 5-5 5s-5-2.24-5-5v-12.88c0-.81-.49-1.55-1.25-1.85-.24-.1-.5-.15-.75-.15-.53 0-1.05.21-1.44.61l-6.02 6.22c-.68.7-1.58 1.08-2.53 1.08s-1.86-.38-2.53-1.08c-1.39-1.44-1.39-3.87 0-5.31l13.96-14.42c.36-.37.56-.87.56-1.39v-11.61c0-.71-.38-1.37-1-1.73-.31-.18-.66-.27-1-.27s-.69.09-.99.26l-10.73 6.14c-.45.26-.78.68-.93 1.18l-5.41 18.68c-.46 1.59-2.02 2.75-3.7 2.75-.31 0-.61-.04-.91-.11-.94-.24-1.72-.83-2.2-1.66s-.59-1.8-.32-2.74l2.23-7.71c.23-.78-.04-1.62-.68-2.13-.36-.28-.8-.43-1.24-.43-.34 0-.68.09-.99.26l-10.79 6.17c-.76.43-1.61.66-2.48.66-1.79 0-3.46-.96-4.35-2.52-.66-1.16-.84-2.51-.48-3.8.35-1.29 1.18-2.36 2.34-3.03l11.18-6.39c.71-.4 1.1-1.2.99-2.01s-.7-1.47-1.49-1.67l-8.38-2.12c-.94-.24-1.72-.83-2.2-1.66s-.59-1.8-.32-2.74c.46-1.59 2.02-2.75 3.7-2.75.31 0 .61.04.91.11l19.45 4.96c.16.04.33.06.49.06.35 0 .69-.09.99-.26l10.09-5.77c.62-.36 1.01-1.02 1.01-1.74s-.38-1.38-1.01-1.74l-10.66-6.11c-.31-.18-.65-.26-.99-.26-.16 0-.33.02-.49.06l-18.85 4.79c-.29.07-.6.11-.9.11-1.69 0-3.24-1.16-3.7-2.75-.27-.93-.16-1.91.32-2.74s1.26-1.42 2.2-1.66l7.78-1.98c.79-.2 1.38-.86 1.49-1.67s-.28-1.6-.99-2.01l-10.78-6.18c-2.39-1.37-3.22-4.43-1.85-6.82.89-1.55 2.55-2.51 4.34-2.51.87 0 1.72.23 2.48.66l11.17 6.4c.31.18.65.26.99.26.44 0 .88-.14 1.24-.43.64-.5.91-1.34.69-2.13l-2.4-8.32c-.27-.93-.16-1.91.32-2.74s1.26-1.42 2.2-1.66c.29-.07.6-.11.9-.11 1.69 0 3.24 1.16 3.7 2.75l5.56 19.29c.14.5.48.92.93 1.18l10.51 6.03c.31.18.65.26.99.26.35 0 .69-.09 1-.27.62-.36 1-1.02 1-1.73v-11.91c0-.52-.2-1.02-.56-1.39l-14.04-14.52c-1.39-1.44-1.39-3.87 0-5.31.68-.7 1.58-1.08 2.53-1.08s1.86.38 2.53 1.08l6.12 6.32c.38.4.91.61 1.44.61.25 0 .51-.05.75-.15.76-.31 1.25-1.04 1.25-1.85v-12.98c0-2.76 2.24-5 5-5m0-2c-3.87 0-7 3.13-7 7v12.97l-6.12-6.32c-1.09-1.13-2.53-1.69-3.97-1.69s-2.88.56-3.97 1.69c-2.16 2.23-2.16 5.87 0 8.09l14.06 14.53v11.94l-10.51-6.03-5.56-19.29c-.73-2.52-3.1-4.2-5.62-4.2-.46 0-.93.06-1.4.17-3.04.77-4.82 3.87-3.95 6.89l2.4 8.32-11.17-6.4c-1.1-.63-2.29-.93-3.48-.93-2.43 0-4.79 1.26-6.08 3.52-1.92 3.35-.76 7.63 2.59 9.55l10.78 6.18-7.78 1.98c-3.04.77-4.82 3.87-3.95 6.89.73 2.52 3.1 4.2 5.62 4.2.46 0 .93-.06 1.4-.17l18.85-4.79 10.66 6.11-10.09 5.77-19.45-4.96c-.47-.12-.94-.18-1.4-.18-2.53 0-4.9 1.68-5.62 4.19-.87 3.02.9 6.12 3.94 6.89l8.39 2.14-11.18 6.39c-3.36 1.92-4.52 6.2-2.6 9.55 1.29 2.26 3.65 3.53 6.08 3.53 1.18 0 2.37-.3 3.47-.93l10.79-6.17-2.23 7.71c-.87 3.02.9 6.12 3.94 6.89.47.12.94.18 1.4.18 2.53 0 4.9-1.68 5.62-4.19l5.41-18.68 10.73-6.12v11.61l-13.96 14.42c-2.16 2.23-2.16 5.87 0 8.09 1.09 1.13 2.53 1.69 3.97 1.69s2.88-.56 3.97-1.69l6.02-6.22v12.88c0 3.87 3.13 7 7 7s7-3.13 7-7v-12.43l5.59 5.77c1.09 1.13 2.53 1.69 3.97 1.69s2.88-.56 3.97-1.69c2.15-2.23 2.15-5.87 0-8.09l-13.53-13.97v-11.91l10.26 5.88 5.39 18.68c.73 2.52 3.1 4.2 5.62 4.2.46 0 .93-.06 1.4-.17 3.04-.77 4.82-3.87 3.95-6.89l-2.23-7.72 10.78 6.18c1.1.63 2.29.93 3.48.93 2.43 0 4.79-1.26 6.08-3.52 1.92-3.35.76-7.63-2.59-9.55l-11.26-6.45 8.52-2.16c3.04-.77 4.82-3.87 3.95-6.89-.73-2.52-3.1-4.2-5.62-4.2-.46 0-.93.06-1.4.17l-19.59 4.97-9.79-5.61 10.46-5.98 18.84 4.8c.47.12.94.18 1.4.18 2.53 0 4.9-1.68 5.62-4.19.87-3.02-.9-6.12-3.94-6.89l-7.78-1.98 10.79-6.17c3.36-1.92 4.52-6.2 2.6-9.55-1.29-2.26-3.65-3.53-6.08-3.53-1.18 0-2.37.3-3.47.93l-11.26 6.44 2.45-8.45c.87-3.02-.9-6.12-3.94-6.89-.47-.12-.94-.18-1.4-.18-2.53 0-4.9 1.68-5.62 4.19l-5.62 19.41-10 5.72v-12.36l13.53-13.97c2.15-2.23 2.15-5.87 0-8.09-1.09-1.13-2.53-1.69-3.97-1.69s-2.88.56-3.97 1.69l-5.59 5.77v-12.43c0-3.87-3.13-7-7-7z" fill="#424242" opacity=".2"/></svg>